<?xml version="1.0" encoding="UTF-8" standalone="no"?>
<!-- Created with Inkscape (http://www.inkscape.org/) -->

<svg
   width="150.04568mm"
   height="8.9027004mm"
   viewBox="0 0 150.04568 8.9027004"
   version="1.1"
   id="svg3971"
   sodipodi:docname="grass.svg"
   inkscape:version="1.2.2 (b0a8486541, 2022-12-01)"
   xmlns:inkscape="http://www.inkscape.org/namespaces/inkscape"
   xmlns:sodipodi="http://sodipodi.sourceforge.net/DTD/sodipodi-0.dtd"
   xmlns="http://www.w3.org/2000/svg"
   xmlns:svg="http://www.w3.org/2000/svg">
  <sodipodi:namedview
     id="namedview3973"
     pagecolor="#ffffff"
     bordercolor="#000000"
     borderopacity="0.25"
     inkscape:showpageshadow="2"
     inkscape:pageopacity="0.0"
     inkscape:pagecheckerboard="0"
     inkscape:deskcolor="#d1d1d1"
     inkscape:document-units="mm"
     showgrid="false"
     inkscape:zoom="3.3638608"
     inkscape:cx="207.64831"
     inkscape:cy="38.348792"
     inkscape:window-width="2560"
     inkscape:window-height="1531"
     inkscape:window-x="1080"
     inkscape:window-y="32"
     inkscape:window-maximized="1"
     inkscape:current-layer="layer1" />
  <defs
     id="defs3968" />
  <g
     inkscape:label="Layer 1"
     inkscape:groupmode="layer"
     id="layer1"
     transform="translate(-28.172071,-151.59948)">
    <path
       d="m 47.266731,159.04063 c 0.0139,0.0596 0.58565,0.85831 0.60082,0.91511 l -1.05834,0.23495 c 0.004,-0.0561 0.45449,-1.0922 0.45752,-1.15006 z m 9.14495,-0.29598 c 0.036,0.16651 0.078,0.31997 0.12277,0.46567 l -0.67063,0.80398 c 0.0564,-0.1584 0.49848,-1.11795 0.54786,-1.26965 z m 42.33757,0.16369 c 0.0367,0.0988 0.70203,1.06363 0.74154,1.16487 l -0.82761,-0.86289 c 0.0303,-0.0974 0.0603,-0.19579 0.0861,-0.30198 z m 59.817359,-0.0875 c 0.0293,0.13723 0.0632,0.26635 0.0988,0.38947 l -0.65758,0.70132 c 0.0459,-0.13194 0.51753,-0.96344 0.5588,-1.09079 z m 19.65114,-1.42875 c -1.08727,0.28469 -2.22921,0.23107 -3.56588,0.37324 0.0282,-0.68086 -0.043,-1.43757 -0.26741,-2.21827 -0.14076,0.2847 -0.30833,0.56903 -0.4886,0.85761 -0.1471,-1.09785 -0.31714,-2.05811 -0.28433,-3.12597 -0.81951,1.09044 -1.34762,2.14842 -1.67923,3.11997 -0.0384,-0.19579 -0.0829,-0.393 -0.1404,-0.59302 -0.26353,0.53516 -0.61207,1.0668 -0.99166,1.63336 -0.21661,-0.59549 -0.41134,-1.15958 -0.5454,-1.71626 -0.14781,0.38382 -0.26352,0.76623 -0.35454,1.14123 -0.1337,-0.69003 -0.35172,-1.40934 -0.69497,-2.12513 -0.0818,1.05869 -0.31397,2.026 -0.52246,3.17959 -0.15946,-0.33338 -0.34608,-0.67698 -0.56057,-1.02518 -0.1524,0.71367 -0.44661,1.46262 -0.7246,2.31705 h -0.0251 c 0.006,-1.85455 -0.21237,-3.2699 -0.0928,-4.79249 -0.69885,0.87136 -1.16699,1.79 -1.47708,2.67547 -0.0106,-1.08232 -0.12065,-2.31034 -0.38276,-3.66748 -0.31186,1.10913 -0.79376,2.14348 -1.30352,3.29918 0.22119,-1.36737 0.097,-2.97286 -0.83996,-4.77626 -0.29351,2.13431 -0.97332,3.51861 -1.64465,4.73745 -0.24659,-0.88018 -0.60572,-1.84926 -1.11231,-2.88219 -0.0399,1.26259 -0.33726,2.49308 -0.56762,3.94194 -0.24448,-0.42369 -0.48225,-0.82303 -0.70203,-1.20756 0.10583,-0.32209 0.22155,-0.63888 0.36301,-0.95462 -0.23107,0.13829 -0.44274,0.28611 -0.64594,0.4378 -0.1143,-0.21731 -0.22295,-0.43356 -0.31644,-0.64946 -0.091,0.36018 -0.15099,0.71508 -0.18944,1.0608 -0.16298,0.14499 -0.31856,0.29175 -0.46073,0.44203 -0.004,-1.01671 -0.11253,-2.17735 -0.38347,-3.46463 -0.2928,0.95356 -0.73519,1.8475 -1.20932,2.82857 0.008,-1.01177 -0.23954,-2.13819 -0.93451,-3.36444 -0.27305,1.81892 -0.88018,3.04518 -1.50318,4.10669 -0.17992,-1.09467 -0.3743,-2.06728 -0.39723,-3.05894 -0.59302,1.20121 -0.96838,2.30928 -1.19098,3.27448 -0.24624,-0.79269 -0.66357,-1.65064 -1.34796,-2.52271 -0.0159,0.98566 -0.254,1.87043 -0.44062,2.93229 -0.42616,-0.72708 -0.82515,-1.38324 -1.11196,-2.04611 -0.11994,0.4773 -0.18803,0.94474 -0.21907,1.39206 -0.13265,-0.64347 -0.35172,-1.31516 -0.70133,-1.98402 -0.0882,1.04457 -0.35066,1.99213 -0.57008,3.16053 -0.19756,-0.43638 -0.45368,-0.90029 -0.77153,-1.37407 -0.15699,0.6731 -0.4639,1.3783 -0.74895,2.1904 0.0113,-1.73355 -0.21449,-3.04518 -0.0935,-4.45946 -1.1102,1.26823 -1.63866,2.64689 -1.87361,3.8361 -0.48507,-0.70026 -1.22378,-1.42699 -2.35867,-2.04611 0.14535,0.41204 0.2279,0.82056 0.29316,1.24389 -0.17216,0.21696 -0.33338,0.43322 -0.47378,0.64594 -0.0409,-1.36313 -0.18591,-2.48461 -0.0836,-3.67877 -0.96802,1.10596 -1.49331,2.29553 -1.76812,3.3708 -0.17674,-0.3556 -0.38982,-0.72637 -0.64276,-1.10279 -0.15134,0.65088 -0.44344,1.3328 -0.72037,2.11067 0.20743,-1.61502 0.1725,-2.89207 0.46601,-4.22028 -1.15958,1.01635 -1.84538,2.18793 -2.25283,3.25896 -0.079,-0.91228 -0.31257,-1.92758 -0.83962,-2.93581 -0.085,1.00612 -0.33196,1.92193 -0.54574,3.03141 -0.16087,-0.20919 -0.34537,-0.41839 -0.5581,-0.62618 -0.17815,-0.74506 -0.49071,-1.54869 -1.01635,-2.35902 -0.0148,0.49212 -0.078,0.95885 -0.15769,1.43863 -0.14605,-0.0921 -0.29739,-0.18309 -0.45897,-0.27129 0.14394,0.40746 0.22613,0.81139 0.29069,1.22908 -0.0197,0.115 -0.0395,0.23248 -0.0589,0.35172 -0.18098,-1.00189 -0.6216,-2.16147 -1.55081,-3.34575 -0.0187,1.12995 -0.32879,2.1262 -0.51823,3.41031 -0.43251,-1.2379 -0.88689,-2.18899 -1.16099,-3.2759 -0.25471,0.7486 -0.35948,1.48202 -0.37571,2.16888 -0.17216,-0.32985 -0.37818,-0.66604 -0.63465,-1.00577 0.002,1.0922 -0.3115,2.03165 -0.40852,3.38596 -0.11994,-0.38029 -0.31644,-0.8001 -0.61947,-1.24354 0.25541,-0.87912 0.45543,-1.66546 0.80574,-2.45039 -0.55033,0.32949 -1.01424,0.70238 -1.41252,1.0922 -0.1457,-0.42263 -0.38735,-0.86678 -0.7553,-1.33104 -0.20496,0.9779 -0.60007,1.71415 -1.04775,2.34315 -0.12947,-0.55068 -0.24095,-1.06891 -0.25823,-1.59385 -0.72919,1.05763 -1.13348,2.01578 -1.32257,2.80388 -0.0942,-0.7941 -0.24729,-1.45732 -0.2099,-2.17381 -0.52952,0.49953 -0.88371,1.01035 -1.12148,1.50001 -0.055,-0.73025 -0.25188,-1.52683 -0.70379,-2.30893 -0.14429,0.92957 -0.47343,1.77976 -0.75812,2.84021 -0.27728,-0.49495 -0.53446,-0.95285 -0.69956,-1.403 -0.14817,0.25153 -0.26388,0.50236 -0.35489,0.74824 -0.13335,-0.45226 -0.35137,-0.92392 -0.69462,-1.39311 -0.0822,0.69532 -0.31503,1.33279 -0.52353,2.09091 -0.16122,-0.22119 -0.34219,-0.44768 -0.5595,-0.67875 -0.12912,0.39617 -0.36019,0.81069 -0.59655,1.26789 h -0.15734 c -0.0215,-1.09361 -0.19967,-1.96321 -0.0885,-2.89031 -0.69885,0.57115 -1.16698,1.17334 -1.47708,1.75331 -0.0106,-0.70944 -0.12065,-1.51448 -0.38276,-2.40348 -0.31221,0.72672 -0.7941,1.40476 -1.30351,2.16218 0.22119,-0.89571 0.0967,-1.94875 -0.83997,-3.13055 -0.29351,1.39876 -0.97366,2.30646 -1.64465,3.10515 -0.24694,-0.5768 -0.60572,-1.21215 -1.11231,-1.88913 -0.0497,1.02517 -0.49283,2.01965 -0.71578,3.29283 h -0.0385 c 0.18451,-1.40406 0.1838,-3.51226 -0.85231,-5.58412 -0.067,0.74436 -0.20743,1.44709 -0.36583,2.19251 -0.0148,-0.0572 -0.0275,-0.11394 -0.0437,-0.17109 -0.14041,0.28504 -0.30833,0.56973 -0.48825,0.85795 -0.1471,-1.09784 -0.3175,-2.0581 -0.28433,-3.12596 -0.62513,0.83114 -1.07633,1.64253 -1.40477,2.41229 -0.25823,-1.25236 -0.67204,-2.66876 -1.29469,-4.19241 -0.0328,1.60584 -0.3369,3.17394 -0.5655,5.02426 -0.57644,-1.28623 -1.16382,-2.71568 -1.13383,-4.8013 -0.81068,0.85654 -1.27988,1.70956 -1.52435,2.53118 -0.139,-0.22755 -0.28646,-0.45438 -0.45085,-0.6784 -0.0942,0.92534 -0.33444,1.89865 -0.58703,2.95805 -0.60325,-1.10455 -1.17933,-2.08351 -1.547629,-3.13514 -0.30974,1.28693 -0.43357,2.44793 -0.4378,3.46463 -0.16228,-0.15064 -0.33972,-0.29739 -0.52564,-0.44238 -0.0437,-0.34537 -0.11253,-0.69991 -0.21625,-1.06081 -0.10654,0.2159 -0.23037,0.43216 -0.36054,0.64947 -0.23178,-0.1517 -0.47343,-0.29951 -0.73695,-0.4378 0.16086,0.31574 0.29316,0.63253 0.41345,0.95462 -0.0998,0.1531 -0.20179,0.30868 -0.30797,0.46708 -0.21626,-0.5962 -0.41134,-1.15994 -0.54504,-1.71662 -0.14817,0.38382 -0.26388,0.76623 -0.3549,1.14159 -0.13335,-0.69004 -0.35137,-1.4097 -0.69462,-2.12549 -0.0818,1.05869 -0.31432,2.026 -0.52246,3.17924 -0.15981,-0.33303 -0.34608,-0.67663 -0.56057,-1.02482 -0.15698,0.73413 -0.4639,1.50389 -0.74894,2.38971 0.0113,-1.89159 -0.21449,-3.32211 -0.0935,-4.86516 -0.69921,0.87137 -1.16734,1.79035 -1.47708,2.67512 -0.0106,-1.08197 -0.12065,-2.30999 -0.38312,-3.66713 -0.31185,1.10914 -0.79375,2.14348 -1.30316,3.29918 0.22119,-1.36701 0.0967,-2.97286 -0.84031,-4.77626 -0.29352,2.13431 -0.97332,3.51861 -1.6443,4.7371 -0.24695,-0.87983 -0.60607,-1.84891 -1.11231,-2.88184 -0.0483,1.52541 -0.47237,3.0039 -0.70026,4.87786 -0.12312,-0.94192 -0.44803,-2.02777 -1.15959,-3.1242 -0.0272,0.9211 -0.22366,1.75436 -0.38417,2.74849 -0.18168,-1.00259 -0.6223,-2.16147 -1.55116,-3.3461 -0.0187,1.1303 -0.32879,2.12655 -0.51859,3.41031 -0.4318,-1.23755 -0.88618,-2.18864 -1.16064,-3.2759 -0.25435,0.74895 -0.35983,1.48237 -0.37606,2.16923 -0.1718,-0.3302 -0.37747,-0.6664 -0.63464,-1.00612 0.002,1.06821 -0.29634,1.99249 -0.40041,3.29918 h -0.0392 c -0.1217,-0.35737 -0.30762,-0.74613 -0.58843,-1.15641 0.25576,-0.87983 0.45544,-1.66546 0.8061,-2.45074 -0.85478,0.51152 -1.50883,1.12641 -2.01225,1.75154 0.0646,-1.12607 0.0201,-2.44405 -0.20849,-3.91972 -0.37994,1.25554 -0.97966,2.419 -1.58397,3.80224 0.23707,-1.26682 0.12453,-2.76048 -0.82832,-4.44147 -0.20532,1.36772 -0.60008,2.39712 -1.04775,3.27625 -0.12983,-0.77012 -0.24095,-1.49402 -0.25824,-2.2285 -0.72919,1.47778 -1.13312,2.81728 -1.32256,3.91936 -0.0942,-1.11019 -0.24765,-2.03623 -0.2099,-3.03812 -0.52988,0.6985 -0.88406,1.41287 -1.12184,2.09762 -0.055,-1.0213 -0.25188,-2.13537 -0.70379,-3.22898 -0.14428,1.30069 -0.47448,2.48461 -0.75918,3.9684 -0.27657,-0.6911 -0.5334,-1.33033 -0.6985,-1.95862 -0.14781,0.35171 -0.26352,0.70237 -0.35454,1.04633 -0.1337,-0.63253 -0.35172,-1.29187 -0.69462,-1.94804 -0.0822,0.9705 -0.31432,1.85703 -0.52246,2.9143 -0.15981,-0.30515 -0.34643,-0.62018 -0.56092,-0.9398 -0.15663,0.6731 -0.4639,1.37866 -0.74895,2.19075 0.0116,-1.7339 -0.21448,-3.04553 -0.0931,-4.45946 -0.6992,0.79833 -1.16734,1.64077 -1.47708,2.45251 -0.0106,-0.99237 -0.121,-2.11808 -0.38312,-3.36162 -0.31185,1.01635 -0.79375,1.96427 -1.30351,3.02366 0.22154,-1.25307 0.097,-2.72486 -0.83996,-4.37797 -0.29351,1.9565 -0.97332,3.22544 -1.6443,4.34234 -0.24695,-0.80645 -0.60607,-1.69475 -1.11231,-2.6416 -0.0462,1.32962 -0.43145,2.62114 -0.66499,4.22169 0.0254,-1.27812 -0.17039,-2.84021 -0.94156,-4.38221 -0.11959,1.32504 -0.47131,2.51637 -0.74048,4.05518 -0.25823,-0.44979 -0.51047,-0.87171 -0.74189,-1.2774 0.10583,-0.32244 0.22154,-0.63888 0.36265,-0.95462 -0.23107,0.13793 -0.44273,0.2861 -0.64593,0.4378 -0.1143,-0.21732 -0.22296,-0.43321 -0.31609,-0.64947 -0.091,0.36054 -0.15134,0.71544 -0.1898,1.06081 -0.16263,0.14463 -0.3182,0.29174 -0.46072,0.44203 -0.004,-1.01671 -0.11219,-2.17735 -0.38383,-3.46463 -0.29245,0.95355 -0.73483,1.84749 -1.20897,2.82857 0.008,-1.01177 -0.23953,-2.13819 -0.93415,-3.36444 -0.27305,1.81892 -0.88018,3.04517 -1.50354,4.10668 -0.17992,-1.09467 -0.3743,-2.06728 -0.39758,-3.05929 -0.59267,1.20156 -0.96802,2.30929 -1.19066,3.27449 -0.2461,-0.79234 -0.66365,-1.6503 -1.34786,-2.52272 -0.0163,0.98637 -0.25382,1.87078 -0.44041,2.93264 -0.42622,-0.72672 -0.82546,-1.38359 -1.11195,-2.04611 -0.12016,0.47731 -0.18824,0.94474 -0.21911,1.39242 -0.13282,-0.64382 -0.35193,-1.31551 -0.70157,-1.98438 -0.0883,1.04493 -0.3507,1.99214 -0.57009,3.16089 -0.19731,-0.43674 -0.45364,-0.90099 -0.7717,-1.37442 -0.15681,0.6731 -0.46383,1.3783 -0.74881,2.1904 0.0114,-1.73355 -0.2147,-3.04518 -0.0934,-4.45947 -1.11012,1.26824 -1.63862,2.64654 -1.87385,3.83611 -0.48479,-0.70027 -1.22343,-1.42699 -2.35825,-2.04611 0.14552,0.41204 0.22768,0.82056 0.29298,1.24389 -0.17226,0.21696 -0.33348,0.43357 -0.47349,0.64558 -0.0409,-1.36313 -0.18602,-2.48461 -0.0838,-3.67841 -0.96806,1.10561 -1.49338,2.29553 -1.76816,3.37079 -0.17681,-0.35595 -0.38985,-0.72601 -0.64283,-1.10278 -0.15159,0.65052 -0.44348,1.33244 -0.72019,2.11067 0.20725,-1.61502 0.1724,-2.89207 0.46594,-4.22028 -1.15951,1.0167 -1.84562,2.18757 -2.25283,3.25896 -0.0788,-0.91264 -0.31267,-1.92758 -0.83965,-2.93582 -0.0853,1.00612 -0.33182,1.92158 -0.54568,3.03142 -0.48355,-0.62794 -1.17933,-1.26541 -2.19096,-1.81786 0.34343,0.97296 0.33736,1.92475 0.58155,3.10515 -0.94823,-0.36795 -2.15473,-0.68086 -3.64052,-0.7807 1.25017,0.71014 3.64052,2.07257 3.64052,2.07257 H 174.45608 c 0,0 2.37666,-1.47108 3.76167,-3.11009"
       style="font-variation-settings:normal;vector-effect:none;fill:#b2ffa9;fill-opacity:1;fill-rule:nonzero;stroke:none;stroke-width:0.0352778;stroke-linecap:butt;stroke-linejoin:miter;stroke-miterlimit:4;stroke-dasharray:none;stroke-dashoffset:0;stroke-opacity:1;-inkscape-stroke:none;stop-color:#000000"
       id="path148" />
  </g>
</svg>
